<svg xmlns="http://www.w3.org/2000/svg" xmlns:xlink="http://www.w3.org/1999/xlink" viewBox="0,0,256,256" width="96px" height="96px" fill-rule="nonzero"><g fill="none" fill-rule="nonzero" stroke="none" stroke-width="1" stroke-linecap="butt" stroke-linejoin="miter" stroke-miterlimit="10" stroke-dasharray="" stroke-dashoffset="0" font-family="none" font-weight="none" font-size="none" text-anchor="none" style="mix-blend-mode: normal"><g transform="scale(5.33333,5.33333)"><circle cx="24" cy="24" r="20" fill="#fe013f"></circle><path d="M27.56,22.97l-1.29,1.3l-3.53,-3.53l1.29,-1.3c0.39,-0.39 1.02,-0.39 1.41,0l2.12,2.12c0.39,0.39 0.39,1.02 0,1.41z" fill="#ffffff"></path><path d="M24.27,26.27l-5.3,5.29l-2,2c-0.39,0.39 -1.02,0.39 -1.41,0l-2.12,-2.12c-0.39,-0.39 -0.39,-1.02 0,-1.41l2,-2l5.29,-5.3l0.01,0.01z" fill="#ffffff"></path><path d="M31,29.503l0.692,-1.752l1.614,-0.751l-1.614,-0.751l-0.692,-1.752l-0.692,1.752l-1.614,0.751l1.614,0.751z" fill="#ffffff"></path><path d="M20,18.5l0.75,-1.75l1.75,-0.75l-1.75,-0.75l-0.75,-1.75l-0.75,1.75l-1.75,0.75l1.75,0.75z" fill="#ffffff"></path><path d="M31,18.503l0.808,-1.752l1.886,-0.751l-1.886,-0.751l-0.808,-1.752l-0.808,1.752l-1.886,0.751l1.886,0.751z" fill="#ffffff"></path></g></g></svg>